<svg width="512" height="512" viewBox="0 0 512 512" xmlns="http://www.w3.org/2000/svg">
  <defs>
    <linearGradient id="gradient" x1="0%" y1="0%" x2="100%" y2="100%">
      <stop offset="0%" style="stop-color:#667eea;stop-opacity:1" />
      <stop offset="100%" style="stop-color:#764ba2;stop-opacity:1" />
    </linearGradient>
  </defs>
  <rect width="512" height="512" rx="100" fill="url(#gradient)"/>
  <g transform="translate(106, 106)">
    <!-- 儿童图标 -->
    <circle cx="75" cy="75" r="35" fill="white"/>
    <path d="M25 160 L125 160 L125 140 Q125 110 75 110 Q25 110 25 140 Z" fill="white"/>
    
    <!-- 设计图标 -->
    <rect x="150" y="20" width="120" height="120" rx="15" fill="white"/>
    <circle cx="210" cy="60" r="20" fill="#667eea"/>
    <path d="M160 110 L210 90 L260 110" stroke="#667eea" stroke-width="8" fill="none"/>
    
    <!-- 安全图标 -->
    <path d="M50 210 L100 190 L150 210 L150 270 Q100 290 50 270 Z" fill="white"/>
    <path d="M75 225 L75 255 M100 225 L100 255" stroke="#667eea" stroke-width="8" stroke-linecap="round"/>
    
    <!-- 椅子图标 -->
    <rect x="180" y="210" width="80" height="80" rx="10" fill="white"/>
    <circle cx="220" cy="250" r="20" fill="#667eea"/>
  </g>
  <text x="256" y="470" font-family="Arial, sans-serif" font-size="36" font-weight="bold" fill="white" text-anchor="middle">儿童产品设计</text>
</svg>
